G75*
G70*
%OFA0B0*%
%FSLAX24Y24*%
%IPPOS*%
%LPD*%
%AMOC8*
5,1,8,0,0,1.08239X$1,22.5*
%
%ADD10C,0.0000*%
%ADD11C,0.1300*%
%ADD12R,0.0205X0.0552*%
%ADD13R,0.0138X0.0434*%
%ADD14R,0.0434X0.0138*%
%ADD15R,0.0512X0.0512*%
%ADD16R,0.0473X0.0434*%
%ADD17R,0.0434X0.0473*%
%ADD18R,0.0257X0.0512*%
%ADD19R,0.0985X0.0339*%
%ADD20R,0.0552X0.0631*%
%ADD21OC8,0.0590*%
%ADD22C,0.0590*%
%ADD23C,0.1040*%
%ADD24C,0.1320*%
%ADD25OC8,0.0640*%
%ADD26R,0.0394X0.0296*%
%ADD27C,0.0600*%
%ADD28C,0.0670*%
%ADD29R,0.0512X0.0257*%
%ADD30R,0.0430X0.0160*%
%ADD31R,0.0591X0.0434*%
D10*
X001274Y001049D02*
X001274Y016797D01*
X017022Y016797D01*
X017022Y001049D01*
X001274Y001049D01*
X002071Y002230D02*
X002073Y002280D01*
X002079Y002330D01*
X002089Y002379D01*
X002102Y002428D01*
X002120Y002475D01*
X002141Y002521D01*
X002165Y002564D01*
X002193Y002606D01*
X002224Y002646D01*
X002258Y002683D01*
X002295Y002717D01*
X002335Y002748D01*
X002377Y002776D01*
X002420Y002800D01*
X002466Y002821D01*
X002513Y002839D01*
X002562Y002852D01*
X002611Y002862D01*
X002661Y002868D01*
X002711Y002870D01*
X002761Y002868D01*
X002811Y002862D01*
X002860Y002852D01*
X002909Y002839D01*
X002956Y002821D01*
X003002Y002800D01*
X003045Y002776D01*
X003087Y002748D01*
X003127Y002717D01*
X003164Y002683D01*
X003198Y002646D01*
X003229Y002606D01*
X003257Y002564D01*
X003281Y002521D01*
X003302Y002475D01*
X003320Y002428D01*
X003333Y002379D01*
X003343Y002330D01*
X003349Y002280D01*
X003351Y002230D01*
X003349Y002180D01*
X003343Y002130D01*
X003333Y002081D01*
X003320Y002032D01*
X003302Y001985D01*
X003281Y001939D01*
X003257Y001896D01*
X003229Y001854D01*
X003198Y001814D01*
X003164Y001777D01*
X003127Y001743D01*
X003087Y001712D01*
X003045Y001684D01*
X003002Y001660D01*
X002956Y001639D01*
X002909Y001621D01*
X002860Y001608D01*
X002811Y001598D01*
X002761Y001592D01*
X002711Y001590D01*
X002661Y001592D01*
X002611Y001598D01*
X002562Y001608D01*
X002513Y001621D01*
X002466Y001639D01*
X002420Y001660D01*
X002377Y001684D01*
X002335Y001712D01*
X002295Y001743D01*
X002258Y001777D01*
X002224Y001814D01*
X002193Y001854D01*
X002165Y001896D01*
X002141Y001939D01*
X002120Y001985D01*
X002102Y002032D01*
X002089Y002081D01*
X002079Y002130D01*
X002073Y002180D01*
X002071Y002230D01*
X007071Y002230D02*
X007073Y002280D01*
X007079Y002330D01*
X007089Y002379D01*
X007102Y002428D01*
X007120Y002475D01*
X007141Y002521D01*
X007165Y002564D01*
X007193Y002606D01*
X007224Y002646D01*
X007258Y002683D01*
X007295Y002717D01*
X007335Y002748D01*
X007377Y002776D01*
X007420Y002800D01*
X007466Y002821D01*
X007513Y002839D01*
X007562Y002852D01*
X007611Y002862D01*
X007661Y002868D01*
X007711Y002870D01*
X007761Y002868D01*
X007811Y002862D01*
X007860Y002852D01*
X007909Y002839D01*
X007956Y002821D01*
X008002Y002800D01*
X008045Y002776D01*
X008087Y002748D01*
X008127Y002717D01*
X008164Y002683D01*
X008198Y002646D01*
X008229Y002606D01*
X008257Y002564D01*
X008281Y002521D01*
X008302Y002475D01*
X008320Y002428D01*
X008333Y002379D01*
X008343Y002330D01*
X008349Y002280D01*
X008351Y002230D01*
X008349Y002180D01*
X008343Y002130D01*
X008333Y002081D01*
X008320Y002032D01*
X008302Y001985D01*
X008281Y001939D01*
X008257Y001896D01*
X008229Y001854D01*
X008198Y001814D01*
X008164Y001777D01*
X008127Y001743D01*
X008087Y001712D01*
X008045Y001684D01*
X008002Y001660D01*
X007956Y001639D01*
X007909Y001621D01*
X007860Y001608D01*
X007811Y001598D01*
X007761Y001592D01*
X007711Y001590D01*
X007661Y001592D01*
X007611Y001598D01*
X007562Y001608D01*
X007513Y001621D01*
X007466Y001639D01*
X007420Y001660D01*
X007377Y001684D01*
X007335Y001712D01*
X007295Y001743D01*
X007258Y001777D01*
X007224Y001814D01*
X007193Y001854D01*
X007165Y001896D01*
X007141Y001939D01*
X007120Y001985D01*
X007102Y002032D01*
X007089Y002081D01*
X007079Y002130D01*
X007073Y002180D01*
X007071Y002230D01*
X009945Y002230D02*
X009947Y002280D01*
X009953Y002330D01*
X009963Y002379D01*
X009976Y002428D01*
X009994Y002475D01*
X010015Y002521D01*
X010039Y002564D01*
X010067Y002606D01*
X010098Y002646D01*
X010132Y002683D01*
X010169Y002717D01*
X010209Y002748D01*
X010251Y002776D01*
X010294Y002800D01*
X010340Y002821D01*
X010387Y002839D01*
X010436Y002852D01*
X010485Y002862D01*
X010535Y002868D01*
X010585Y002870D01*
X010635Y002868D01*
X010685Y002862D01*
X010734Y002852D01*
X010783Y002839D01*
X010830Y002821D01*
X010876Y002800D01*
X010919Y002776D01*
X010961Y002748D01*
X011001Y002717D01*
X011038Y002683D01*
X011072Y002646D01*
X011103Y002606D01*
X011131Y002564D01*
X011155Y002521D01*
X011176Y002475D01*
X011194Y002428D01*
X011207Y002379D01*
X011217Y002330D01*
X011223Y002280D01*
X011225Y002230D01*
X011223Y002180D01*
X011217Y002130D01*
X011207Y002081D01*
X011194Y002032D01*
X011176Y001985D01*
X011155Y001939D01*
X011131Y001896D01*
X011103Y001854D01*
X011072Y001814D01*
X011038Y001777D01*
X011001Y001743D01*
X010961Y001712D01*
X010919Y001684D01*
X010876Y001660D01*
X010830Y001639D01*
X010783Y001621D01*
X010734Y001608D01*
X010685Y001598D01*
X010635Y001592D01*
X010585Y001590D01*
X010535Y001592D01*
X010485Y001598D01*
X010436Y001608D01*
X010387Y001621D01*
X010340Y001639D01*
X010294Y001660D01*
X010251Y001684D01*
X010209Y001712D01*
X010169Y001743D01*
X010132Y001777D01*
X010098Y001814D01*
X010067Y001854D01*
X010039Y001896D01*
X010015Y001939D01*
X009994Y001985D01*
X009976Y002032D01*
X009963Y002081D01*
X009953Y002130D01*
X009947Y002180D01*
X009945Y002230D01*
X014945Y002230D02*
X014947Y002280D01*
X014953Y002330D01*
X014963Y002379D01*
X014976Y002428D01*
X014994Y002475D01*
X015015Y002521D01*
X015039Y002564D01*
X015067Y002606D01*
X015098Y002646D01*
X015132Y002683D01*
X015169Y002717D01*
X015209Y002748D01*
X015251Y002776D01*
X015294Y002800D01*
X015340Y002821D01*
X015387Y002839D01*
X015436Y002852D01*
X015485Y002862D01*
X015535Y002868D01*
X015585Y002870D01*
X015635Y002868D01*
X015685Y002862D01*
X015734Y002852D01*
X015783Y002839D01*
X015830Y002821D01*
X015876Y002800D01*
X015919Y002776D01*
X015961Y002748D01*
X016001Y002717D01*
X016038Y002683D01*
X016072Y002646D01*
X016103Y002606D01*
X016131Y002564D01*
X016155Y002521D01*
X016176Y002475D01*
X016194Y002428D01*
X016207Y002379D01*
X016217Y002330D01*
X016223Y002280D01*
X016225Y002230D01*
X016223Y002180D01*
X016217Y002130D01*
X016207Y002081D01*
X016194Y002032D01*
X016176Y001985D01*
X016155Y001939D01*
X016131Y001896D01*
X016103Y001854D01*
X016072Y001814D01*
X016038Y001777D01*
X016001Y001743D01*
X015961Y001712D01*
X015919Y001684D01*
X015876Y001660D01*
X015830Y001639D01*
X015783Y001621D01*
X015734Y001608D01*
X015685Y001598D01*
X015635Y001592D01*
X015585Y001590D01*
X015535Y001592D01*
X015485Y001598D01*
X015436Y001608D01*
X015387Y001621D01*
X015340Y001639D01*
X015294Y001660D01*
X015251Y001684D01*
X015209Y001712D01*
X015169Y001743D01*
X015132Y001777D01*
X015098Y001814D01*
X015067Y001854D01*
X015039Y001896D01*
X015015Y001939D01*
X014994Y001985D01*
X014976Y002032D01*
X014963Y002081D01*
X014953Y002130D01*
X014947Y002180D01*
X014945Y002230D01*
X014817Y008923D02*
X014819Y008973D01*
X014825Y009023D01*
X014835Y009072D01*
X014849Y009120D01*
X014866Y009167D01*
X014887Y009212D01*
X014912Y009256D01*
X014940Y009297D01*
X014972Y009336D01*
X015006Y009373D01*
X015043Y009407D01*
X015083Y009437D01*
X015125Y009464D01*
X015169Y009488D01*
X015215Y009509D01*
X015262Y009525D01*
X015310Y009538D01*
X015360Y009547D01*
X015409Y009552D01*
X015460Y009553D01*
X015510Y009550D01*
X015559Y009543D01*
X015608Y009532D01*
X015656Y009517D01*
X015702Y009499D01*
X015747Y009477D01*
X015790Y009451D01*
X015831Y009422D01*
X015870Y009390D01*
X015906Y009355D01*
X015938Y009317D01*
X015968Y009277D01*
X015995Y009234D01*
X016018Y009190D01*
X016037Y009144D01*
X016053Y009096D01*
X016065Y009047D01*
X016073Y008998D01*
X016077Y008948D01*
X016077Y008898D01*
X016073Y008848D01*
X016065Y008799D01*
X016053Y008750D01*
X016037Y008702D01*
X016018Y008656D01*
X015995Y008612D01*
X015968Y008569D01*
X015938Y008529D01*
X015906Y008491D01*
X015870Y008456D01*
X015831Y008424D01*
X015790Y008395D01*
X015747Y008369D01*
X015702Y008347D01*
X015656Y008329D01*
X015608Y008314D01*
X015559Y008303D01*
X015510Y008296D01*
X015460Y008293D01*
X015409Y008294D01*
X015360Y008299D01*
X015310Y008308D01*
X015262Y008321D01*
X015215Y008337D01*
X015169Y008358D01*
X015125Y008382D01*
X015083Y008409D01*
X015043Y008439D01*
X015006Y008473D01*
X014972Y008510D01*
X014940Y008549D01*
X014912Y008590D01*
X014887Y008634D01*
X014866Y008679D01*
X014849Y008726D01*
X014835Y008774D01*
X014825Y008823D01*
X014819Y008873D01*
X014817Y008923D01*
X015760Y014715D02*
X015762Y014750D01*
X015768Y014785D01*
X015778Y014819D01*
X015791Y014852D01*
X015808Y014883D01*
X015829Y014911D01*
X015852Y014938D01*
X015879Y014961D01*
X015907Y014982D01*
X015938Y014999D01*
X015971Y015012D01*
X016005Y015022D01*
X016040Y015028D01*
X016075Y015030D01*
X016110Y015028D01*
X016145Y015022D01*
X016179Y015012D01*
X016212Y014999D01*
X016243Y014982D01*
X016271Y014961D01*
X016298Y014938D01*
X016321Y014911D01*
X016342Y014883D01*
X016359Y014852D01*
X016372Y014819D01*
X016382Y014785D01*
X016388Y014750D01*
X016390Y014715D01*
X016388Y014680D01*
X016382Y014645D01*
X016372Y014611D01*
X016359Y014578D01*
X016342Y014547D01*
X016321Y014519D01*
X016298Y014492D01*
X016271Y014469D01*
X016243Y014448D01*
X016212Y014431D01*
X016179Y014418D01*
X016145Y014408D01*
X016110Y014402D01*
X016075Y014400D01*
X016040Y014402D01*
X016005Y014408D01*
X015971Y014418D01*
X015938Y014431D01*
X015907Y014448D01*
X015879Y014469D01*
X015852Y014492D01*
X015829Y014519D01*
X015808Y014547D01*
X015791Y014578D01*
X015778Y014611D01*
X015768Y014645D01*
X015762Y014680D01*
X015760Y014715D01*
X007532Y015133D02*
X007534Y015168D01*
X007540Y015203D01*
X007550Y015237D01*
X007563Y015270D01*
X007580Y015301D01*
X007601Y015329D01*
X007624Y015356D01*
X007651Y015379D01*
X007679Y015400D01*
X007710Y015417D01*
X007743Y015430D01*
X007777Y015440D01*
X007812Y015446D01*
X007847Y015448D01*
X007882Y015446D01*
X007917Y015440D01*
X007951Y015430D01*
X007984Y015417D01*
X008015Y015400D01*
X008043Y015379D01*
X008070Y015356D01*
X008093Y015329D01*
X008114Y015301D01*
X008131Y015270D01*
X008144Y015237D01*
X008154Y015203D01*
X008160Y015168D01*
X008162Y015133D01*
X008160Y015098D01*
X008154Y015063D01*
X008144Y015029D01*
X008131Y014996D01*
X008114Y014965D01*
X008093Y014937D01*
X008070Y014910D01*
X008043Y014887D01*
X008015Y014866D01*
X007984Y014849D01*
X007951Y014836D01*
X007917Y014826D01*
X007882Y014820D01*
X007847Y014818D01*
X007812Y014820D01*
X007777Y014826D01*
X007743Y014836D01*
X007710Y014849D01*
X007679Y014866D01*
X007651Y014887D01*
X007624Y014910D01*
X007601Y014937D01*
X007580Y014965D01*
X007563Y014996D01*
X007550Y015029D01*
X007540Y015063D01*
X007534Y015098D01*
X007532Y015133D01*
X002219Y008923D02*
X002221Y008973D01*
X002227Y009023D01*
X002237Y009072D01*
X002251Y009120D01*
X002268Y009167D01*
X002289Y009212D01*
X002314Y009256D01*
X002342Y009297D01*
X002374Y009336D01*
X002408Y009373D01*
X002445Y009407D01*
X002485Y009437D01*
X002527Y009464D01*
X002571Y009488D01*
X002617Y009509D01*
X002664Y009525D01*
X002712Y009538D01*
X002762Y009547D01*
X002811Y009552D01*
X002862Y009553D01*
X002912Y009550D01*
X002961Y009543D01*
X003010Y009532D01*
X003058Y009517D01*
X003104Y009499D01*
X003149Y009477D01*
X003192Y009451D01*
X003233Y009422D01*
X003272Y009390D01*
X003308Y009355D01*
X003340Y009317D01*
X003370Y009277D01*
X003397Y009234D01*
X003420Y009190D01*
X003439Y009144D01*
X003455Y009096D01*
X003467Y009047D01*
X003475Y008998D01*
X003479Y008948D01*
X003479Y008898D01*
X003475Y008848D01*
X003467Y008799D01*
X003455Y008750D01*
X003439Y008702D01*
X003420Y008656D01*
X003397Y008612D01*
X003370Y008569D01*
X003340Y008529D01*
X003308Y008491D01*
X003272Y008456D01*
X003233Y008424D01*
X003192Y008395D01*
X003149Y008369D01*
X003104Y008347D01*
X003058Y008329D01*
X003010Y008314D01*
X002961Y008303D01*
X002912Y008296D01*
X002862Y008293D01*
X002811Y008294D01*
X002762Y008299D01*
X002712Y008308D01*
X002664Y008321D01*
X002617Y008337D01*
X002571Y008358D01*
X002527Y008382D01*
X002485Y008409D01*
X002445Y008439D01*
X002408Y008473D01*
X002374Y008510D01*
X002342Y008549D01*
X002314Y008590D01*
X002289Y008634D01*
X002268Y008679D01*
X002251Y008726D01*
X002237Y008774D01*
X002227Y008823D01*
X002221Y008873D01*
X002219Y008923D01*
D11*
X002849Y008923D03*
X015447Y008923D03*
D12*
X013473Y007011D03*
X013217Y007011D03*
X012961Y007011D03*
X012705Y007011D03*
X012705Y006086D03*
X012961Y006086D03*
X013217Y006086D03*
X013473Y006086D03*
D13*
X012232Y008501D03*
X012035Y008501D03*
X011838Y008501D03*
X011641Y008501D03*
X011444Y008501D03*
X011247Y008501D03*
X011050Y008501D03*
X010854Y008501D03*
X010657Y008501D03*
X010460Y008501D03*
X010263Y008501D03*
X010066Y008501D03*
X010066Y011847D03*
X010263Y011847D03*
X010460Y011847D03*
X010657Y011847D03*
X010854Y011847D03*
X011050Y011847D03*
X011247Y011847D03*
X011444Y011847D03*
X011641Y011847D03*
X011838Y011847D03*
X012035Y011847D03*
X012232Y011847D03*
D14*
X012822Y011257D03*
X012822Y011060D03*
X012822Y010863D03*
X012822Y010666D03*
X012822Y010469D03*
X012822Y010272D03*
X012822Y010075D03*
X012822Y009879D03*
X012822Y009682D03*
X012822Y009485D03*
X012822Y009288D03*
X012822Y009091D03*
X009476Y009091D03*
X009476Y009288D03*
X009476Y009485D03*
X009476Y009682D03*
X009476Y009879D03*
X009476Y010075D03*
X009476Y010272D03*
X009476Y010469D03*
X009476Y010666D03*
X009476Y010863D03*
X009476Y011060D03*
X009476Y011257D03*
D15*
X010774Y006087D03*
X010774Y005261D03*
X007524Y005261D03*
X007524Y006087D03*
X002899Y006087D03*
X002899Y005261D03*
X015399Y005261D03*
X015399Y006087D03*
D16*
X016274Y006009D03*
X016274Y005339D03*
X014274Y006089D03*
X014274Y006759D03*
X012921Y007799D03*
X012252Y007799D03*
X013524Y010089D03*
X013524Y010759D03*
X013671Y011861D03*
X013002Y011861D03*
X011233Y013049D03*
X010564Y013049D03*
X008586Y013259D03*
X008586Y012589D03*
X006796Y012486D03*
X006127Y012486D03*
X006108Y010799D03*
X005439Y010799D03*
X006524Y010071D03*
X006524Y009402D03*
X006336Y008759D03*
X006336Y008089D03*
X005524Y008089D03*
X005524Y008759D03*
X006127Y006924D03*
X006796Y006924D03*
X008399Y006009D03*
X008399Y005339D03*
X009899Y005339D03*
X009899Y006009D03*
X008108Y009361D03*
X007439Y009361D03*
X004296Y006924D03*
X003627Y006924D03*
X003627Y006111D03*
X004296Y006111D03*
X002024Y006009D03*
X002024Y005339D03*
X002336Y011527D03*
X002336Y012196D03*
X003689Y012924D03*
X004358Y012924D03*
X004358Y013736D03*
X003689Y013736D03*
X012336Y015027D03*
X012336Y015696D03*
D17*
X011524Y015696D03*
X011524Y015027D03*
X009399Y013259D03*
X009399Y012589D03*
X007524Y012589D03*
X007524Y013259D03*
X006796Y013299D03*
X006127Y013299D03*
X005608Y013299D03*
X004939Y013299D03*
X005086Y013964D03*
X005086Y014634D03*
X005086Y015214D03*
X005086Y015884D03*
X006064Y014111D03*
X006733Y014111D03*
X006796Y011674D03*
X006127Y011674D03*
X007564Y010611D03*
X008233Y010611D03*
X008774Y009071D03*
X008774Y008402D03*
X008108Y008549D03*
X007439Y008549D03*
X006796Y006111D03*
X006127Y006111D03*
X004649Y008089D03*
X004649Y008759D03*
X004608Y010736D03*
X003939Y010736D03*
X002899Y012839D03*
X002899Y013509D03*
X002024Y013509D03*
X002024Y012839D03*
X011899Y006759D03*
X011899Y006089D03*
D18*
X005585Y006037D03*
X005211Y006037D03*
X004837Y006037D03*
X004837Y007061D03*
X005585Y007061D03*
D19*
X014756Y010549D03*
X014756Y011049D03*
X014756Y011549D03*
X014756Y012049D03*
X014756Y012549D03*
X016292Y012549D03*
X016292Y012049D03*
X016292Y011549D03*
X016292Y011049D03*
X016292Y010549D03*
D20*
X013523Y012674D03*
X012775Y012674D03*
D21*
X014485Y003230D03*
X006611Y003230D03*
D22*
X005811Y003230D03*
X005011Y003230D03*
X004211Y003230D03*
X004611Y003930D03*
X005411Y003930D03*
X006211Y003930D03*
X003811Y003930D03*
X011685Y003930D03*
X012485Y003930D03*
X013285Y003930D03*
X014085Y003930D03*
X013685Y003230D03*
X012885Y003230D03*
X012085Y003230D03*
D23*
X009895Y003580D03*
X008401Y003580D03*
X002021Y003580D03*
X016275Y003580D03*
D24*
X015585Y002230D03*
X010585Y002230D03*
X007711Y002230D03*
X002711Y002230D03*
D25*
X003711Y005174D03*
X004711Y005174D03*
X005711Y005174D03*
X006711Y005174D03*
X011586Y005174D03*
X012586Y005174D03*
X013586Y005174D03*
X014586Y005174D03*
D26*
X012312Y013849D03*
X012312Y014499D03*
X011485Y014499D03*
X011485Y013849D03*
D27*
X009898Y015424D03*
X008898Y015424D03*
X009398Y014424D03*
X008398Y014424D03*
X014024Y014424D03*
X015024Y014424D03*
X015524Y015424D03*
X014524Y015424D03*
D28*
X016075Y014715D03*
X007847Y015133D03*
D29*
X007512Y012048D03*
X007512Y011674D03*
X007512Y011300D03*
X008536Y011300D03*
X008536Y012048D03*
X005786Y010110D03*
X005786Y009362D03*
X004762Y009362D03*
X004762Y009736D03*
X004762Y010110D03*
X004161Y011487D03*
X004161Y012235D03*
X003137Y012235D03*
X003137Y011861D03*
X003137Y011487D03*
D30*
X002000Y014278D03*
X002000Y014534D03*
X002000Y014790D03*
X002000Y015046D03*
X002000Y015302D03*
X002000Y015558D03*
X002000Y015814D03*
X002000Y016070D03*
X004298Y016070D03*
X004298Y015814D03*
X004298Y015558D03*
X004298Y015302D03*
X004298Y015046D03*
X004298Y014790D03*
X004298Y014534D03*
X004298Y014278D03*
D31*
X005841Y015174D03*
X006707Y015548D03*
X006707Y014800D03*
M02*
