G75*
G70*
%OFA0B0*%
%FSLAX24Y24*%
%IPPOS*%
%LPD*%
%AMOC8*
5,1,8,0,0,1.08239X$1,22.5*
%
%ADD10C,0.0000*%
%ADD11C,0.0050*%
%ADD12C,0.0100*%
%ADD13C,0.0040*%
%ADD14R,0.0079X0.0079*%
%ADD15C,0.0060*%
%ADD16C,0.0080*%
%ADD17C,0.0020*%
D10*
X001274Y001049D02*
X001274Y016797D01*
X017022Y016797D01*
X017022Y001049D01*
X001274Y001049D01*
X002071Y002230D02*
X002073Y002280D01*
X002079Y002330D01*
X002089Y002379D01*
X002102Y002428D01*
X002120Y002475D01*
X002141Y002521D01*
X002165Y002564D01*
X002193Y002606D01*
X002224Y002646D01*
X002258Y002683D01*
X002295Y002717D01*
X002335Y002748D01*
X002377Y002776D01*
X002420Y002800D01*
X002466Y002821D01*
X002513Y002839D01*
X002562Y002852D01*
X002611Y002862D01*
X002661Y002868D01*
X002711Y002870D01*
X002761Y002868D01*
X002811Y002862D01*
X002860Y002852D01*
X002909Y002839D01*
X002956Y002821D01*
X003002Y002800D01*
X003045Y002776D01*
X003087Y002748D01*
X003127Y002717D01*
X003164Y002683D01*
X003198Y002646D01*
X003229Y002606D01*
X003257Y002564D01*
X003281Y002521D01*
X003302Y002475D01*
X003320Y002428D01*
X003333Y002379D01*
X003343Y002330D01*
X003349Y002280D01*
X003351Y002230D01*
X003349Y002180D01*
X003343Y002130D01*
X003333Y002081D01*
X003320Y002032D01*
X003302Y001985D01*
X003281Y001939D01*
X003257Y001896D01*
X003229Y001854D01*
X003198Y001814D01*
X003164Y001777D01*
X003127Y001743D01*
X003087Y001712D01*
X003045Y001684D01*
X003002Y001660D01*
X002956Y001639D01*
X002909Y001621D01*
X002860Y001608D01*
X002811Y001598D01*
X002761Y001592D01*
X002711Y001590D01*
X002661Y001592D01*
X002611Y001598D01*
X002562Y001608D01*
X002513Y001621D01*
X002466Y001639D01*
X002420Y001660D01*
X002377Y001684D01*
X002335Y001712D01*
X002295Y001743D01*
X002258Y001777D01*
X002224Y001814D01*
X002193Y001854D01*
X002165Y001896D01*
X002141Y001939D01*
X002120Y001985D01*
X002102Y002032D01*
X002089Y002081D01*
X002079Y002130D01*
X002073Y002180D01*
X002071Y002230D01*
X007071Y002230D02*
X007073Y002280D01*
X007079Y002330D01*
X007089Y002379D01*
X007102Y002428D01*
X007120Y002475D01*
X007141Y002521D01*
X007165Y002564D01*
X007193Y002606D01*
X007224Y002646D01*
X007258Y002683D01*
X007295Y002717D01*
X007335Y002748D01*
X007377Y002776D01*
X007420Y002800D01*
X007466Y002821D01*
X007513Y002839D01*
X007562Y002852D01*
X007611Y002862D01*
X007661Y002868D01*
X007711Y002870D01*
X007761Y002868D01*
X007811Y002862D01*
X007860Y002852D01*
X007909Y002839D01*
X007956Y002821D01*
X008002Y002800D01*
X008045Y002776D01*
X008087Y002748D01*
X008127Y002717D01*
X008164Y002683D01*
X008198Y002646D01*
X008229Y002606D01*
X008257Y002564D01*
X008281Y002521D01*
X008302Y002475D01*
X008320Y002428D01*
X008333Y002379D01*
X008343Y002330D01*
X008349Y002280D01*
X008351Y002230D01*
X008349Y002180D01*
X008343Y002130D01*
X008333Y002081D01*
X008320Y002032D01*
X008302Y001985D01*
X008281Y001939D01*
X008257Y001896D01*
X008229Y001854D01*
X008198Y001814D01*
X008164Y001777D01*
X008127Y001743D01*
X008087Y001712D01*
X008045Y001684D01*
X008002Y001660D01*
X007956Y001639D01*
X007909Y001621D01*
X007860Y001608D01*
X007811Y001598D01*
X007761Y001592D01*
X007711Y001590D01*
X007661Y001592D01*
X007611Y001598D01*
X007562Y001608D01*
X007513Y001621D01*
X007466Y001639D01*
X007420Y001660D01*
X007377Y001684D01*
X007335Y001712D01*
X007295Y001743D01*
X007258Y001777D01*
X007224Y001814D01*
X007193Y001854D01*
X007165Y001896D01*
X007141Y001939D01*
X007120Y001985D01*
X007102Y002032D01*
X007089Y002081D01*
X007079Y002130D01*
X007073Y002180D01*
X007071Y002230D01*
X009945Y002230D02*
X009947Y002280D01*
X009953Y002330D01*
X009963Y002379D01*
X009976Y002428D01*
X009994Y002475D01*
X010015Y002521D01*
X010039Y002564D01*
X010067Y002606D01*
X010098Y002646D01*
X010132Y002683D01*
X010169Y002717D01*
X010209Y002748D01*
X010251Y002776D01*
X010294Y002800D01*
X010340Y002821D01*
X010387Y002839D01*
X010436Y002852D01*
X010485Y002862D01*
X010535Y002868D01*
X010585Y002870D01*
X010635Y002868D01*
X010685Y002862D01*
X010734Y002852D01*
X010783Y002839D01*
X010830Y002821D01*
X010876Y002800D01*
X010919Y002776D01*
X010961Y002748D01*
X011001Y002717D01*
X011038Y002683D01*
X011072Y002646D01*
X011103Y002606D01*
X011131Y002564D01*
X011155Y002521D01*
X011176Y002475D01*
X011194Y002428D01*
X011207Y002379D01*
X011217Y002330D01*
X011223Y002280D01*
X011225Y002230D01*
X011223Y002180D01*
X011217Y002130D01*
X011207Y002081D01*
X011194Y002032D01*
X011176Y001985D01*
X011155Y001939D01*
X011131Y001896D01*
X011103Y001854D01*
X011072Y001814D01*
X011038Y001777D01*
X011001Y001743D01*
X010961Y001712D01*
X010919Y001684D01*
X010876Y001660D01*
X010830Y001639D01*
X010783Y001621D01*
X010734Y001608D01*
X010685Y001598D01*
X010635Y001592D01*
X010585Y001590D01*
X010535Y001592D01*
X010485Y001598D01*
X010436Y001608D01*
X010387Y001621D01*
X010340Y001639D01*
X010294Y001660D01*
X010251Y001684D01*
X010209Y001712D01*
X010169Y001743D01*
X010132Y001777D01*
X010098Y001814D01*
X010067Y001854D01*
X010039Y001896D01*
X010015Y001939D01*
X009994Y001985D01*
X009976Y002032D01*
X009963Y002081D01*
X009953Y002130D01*
X009947Y002180D01*
X009945Y002230D01*
X014945Y002230D02*
X014947Y002280D01*
X014953Y002330D01*
X014963Y002379D01*
X014976Y002428D01*
X014994Y002475D01*
X015015Y002521D01*
X015039Y002564D01*
X015067Y002606D01*
X015098Y002646D01*
X015132Y002683D01*
X015169Y002717D01*
X015209Y002748D01*
X015251Y002776D01*
X015294Y002800D01*
X015340Y002821D01*
X015387Y002839D01*
X015436Y002852D01*
X015485Y002862D01*
X015535Y002868D01*
X015585Y002870D01*
X015635Y002868D01*
X015685Y002862D01*
X015734Y002852D01*
X015783Y002839D01*
X015830Y002821D01*
X015876Y002800D01*
X015919Y002776D01*
X015961Y002748D01*
X016001Y002717D01*
X016038Y002683D01*
X016072Y002646D01*
X016103Y002606D01*
X016131Y002564D01*
X016155Y002521D01*
X016176Y002475D01*
X016194Y002428D01*
X016207Y002379D01*
X016217Y002330D01*
X016223Y002280D01*
X016225Y002230D01*
X016223Y002180D01*
X016217Y002130D01*
X016207Y002081D01*
X016194Y002032D01*
X016176Y001985D01*
X016155Y001939D01*
X016131Y001896D01*
X016103Y001854D01*
X016072Y001814D01*
X016038Y001777D01*
X016001Y001743D01*
X015961Y001712D01*
X015919Y001684D01*
X015876Y001660D01*
X015830Y001639D01*
X015783Y001621D01*
X015734Y001608D01*
X015685Y001598D01*
X015635Y001592D01*
X015585Y001590D01*
X015535Y001592D01*
X015485Y001598D01*
X015436Y001608D01*
X015387Y001621D01*
X015340Y001639D01*
X015294Y001660D01*
X015251Y001684D01*
X015209Y001712D01*
X015169Y001743D01*
X015132Y001777D01*
X015098Y001814D01*
X015067Y001854D01*
X015039Y001896D01*
X015015Y001939D01*
X014994Y001985D01*
X014976Y002032D01*
X014963Y002081D01*
X014953Y002130D01*
X014947Y002180D01*
X014945Y002230D01*
X014817Y008923D02*
X014819Y008973D01*
X014825Y009023D01*
X014835Y009072D01*
X014849Y009120D01*
X014866Y009167D01*
X014887Y009212D01*
X014912Y009256D01*
X014940Y009297D01*
X014972Y009336D01*
X015006Y009373D01*
X015043Y009407D01*
X015083Y009437D01*
X015125Y009464D01*
X015169Y009488D01*
X015215Y009509D01*
X015262Y009525D01*
X015310Y009538D01*
X015360Y009547D01*
X015409Y009552D01*
X015460Y009553D01*
X015510Y009550D01*
X015559Y009543D01*
X015608Y009532D01*
X015656Y009517D01*
X015702Y009499D01*
X015747Y009477D01*
X015790Y009451D01*
X015831Y009422D01*
X015870Y009390D01*
X015906Y009355D01*
X015938Y009317D01*
X015968Y009277D01*
X015995Y009234D01*
X016018Y009190D01*
X016037Y009144D01*
X016053Y009096D01*
X016065Y009047D01*
X016073Y008998D01*
X016077Y008948D01*
X016077Y008898D01*
X016073Y008848D01*
X016065Y008799D01*
X016053Y008750D01*
X016037Y008702D01*
X016018Y008656D01*
X015995Y008612D01*
X015968Y008569D01*
X015938Y008529D01*
X015906Y008491D01*
X015870Y008456D01*
X015831Y008424D01*
X015790Y008395D01*
X015747Y008369D01*
X015702Y008347D01*
X015656Y008329D01*
X015608Y008314D01*
X015559Y008303D01*
X015510Y008296D01*
X015460Y008293D01*
X015409Y008294D01*
X015360Y008299D01*
X015310Y008308D01*
X015262Y008321D01*
X015215Y008337D01*
X015169Y008358D01*
X015125Y008382D01*
X015083Y008409D01*
X015043Y008439D01*
X015006Y008473D01*
X014972Y008510D01*
X014940Y008549D01*
X014912Y008590D01*
X014887Y008634D01*
X014866Y008679D01*
X014849Y008726D01*
X014835Y008774D01*
X014825Y008823D01*
X014819Y008873D01*
X014817Y008923D01*
X015760Y014715D02*
X015762Y014750D01*
X015768Y014785D01*
X015778Y014819D01*
X015791Y014852D01*
X015808Y014883D01*
X015829Y014911D01*
X015852Y014938D01*
X015879Y014961D01*
X015907Y014982D01*
X015938Y014999D01*
X015971Y015012D01*
X016005Y015022D01*
X016040Y015028D01*
X016075Y015030D01*
X016110Y015028D01*
X016145Y015022D01*
X016179Y015012D01*
X016212Y014999D01*
X016243Y014982D01*
X016271Y014961D01*
X016298Y014938D01*
X016321Y014911D01*
X016342Y014883D01*
X016359Y014852D01*
X016372Y014819D01*
X016382Y014785D01*
X016388Y014750D01*
X016390Y014715D01*
X016388Y014680D01*
X016382Y014645D01*
X016372Y014611D01*
X016359Y014578D01*
X016342Y014547D01*
X016321Y014519D01*
X016298Y014492D01*
X016271Y014469D01*
X016243Y014448D01*
X016212Y014431D01*
X016179Y014418D01*
X016145Y014408D01*
X016110Y014402D01*
X016075Y014400D01*
X016040Y014402D01*
X016005Y014408D01*
X015971Y014418D01*
X015938Y014431D01*
X015907Y014448D01*
X015879Y014469D01*
X015852Y014492D01*
X015829Y014519D01*
X015808Y014547D01*
X015791Y014578D01*
X015778Y014611D01*
X015768Y014645D01*
X015762Y014680D01*
X015760Y014715D01*
X007532Y015133D02*
X007534Y015168D01*
X007540Y015203D01*
X007550Y015237D01*
X007563Y015270D01*
X007580Y015301D01*
X007601Y015329D01*
X007624Y015356D01*
X007651Y015379D01*
X007679Y015400D01*
X007710Y015417D01*
X007743Y015430D01*
X007777Y015440D01*
X007812Y015446D01*
X007847Y015448D01*
X007882Y015446D01*
X007917Y015440D01*
X007951Y015430D01*
X007984Y015417D01*
X008015Y015400D01*
X008043Y015379D01*
X008070Y015356D01*
X008093Y015329D01*
X008114Y015301D01*
X008131Y015270D01*
X008144Y015237D01*
X008154Y015203D01*
X008160Y015168D01*
X008162Y015133D01*
X008160Y015098D01*
X008154Y015063D01*
X008144Y015029D01*
X008131Y014996D01*
X008114Y014965D01*
X008093Y014937D01*
X008070Y014910D01*
X008043Y014887D01*
X008015Y014866D01*
X007984Y014849D01*
X007951Y014836D01*
X007917Y014826D01*
X007882Y014820D01*
X007847Y014818D01*
X007812Y014820D01*
X007777Y014826D01*
X007743Y014836D01*
X007710Y014849D01*
X007679Y014866D01*
X007651Y014887D01*
X007624Y014910D01*
X007601Y014937D01*
X007580Y014965D01*
X007563Y014996D01*
X007550Y015029D01*
X007540Y015063D01*
X007534Y015098D01*
X007532Y015133D01*
X002219Y008923D02*
X002221Y008973D01*
X002227Y009023D01*
X002237Y009072D01*
X002251Y009120D01*
X002268Y009167D01*
X002289Y009212D01*
X002314Y009256D01*
X002342Y009297D01*
X002374Y009336D01*
X002408Y009373D01*
X002445Y009407D01*
X002485Y009437D01*
X002527Y009464D01*
X002571Y009488D01*
X002617Y009509D01*
X002664Y009525D01*
X002712Y009538D01*
X002762Y009547D01*
X002811Y009552D01*
X002862Y009553D01*
X002912Y009550D01*
X002961Y009543D01*
X003010Y009532D01*
X003058Y009517D01*
X003104Y009499D01*
X003149Y009477D01*
X003192Y009451D01*
X003233Y009422D01*
X003272Y009390D01*
X003308Y009355D01*
X003340Y009317D01*
X003370Y009277D01*
X003397Y009234D01*
X003420Y009190D01*
X003439Y009144D01*
X003455Y009096D01*
X003467Y009047D01*
X003475Y008998D01*
X003479Y008948D01*
X003479Y008898D01*
X003475Y008848D01*
X003467Y008799D01*
X003455Y008750D01*
X003439Y008702D01*
X003420Y008656D01*
X003397Y008612D01*
X003370Y008569D01*
X003340Y008529D01*
X003308Y008491D01*
X003272Y008456D01*
X003233Y008424D01*
X003192Y008395D01*
X003149Y008369D01*
X003104Y008347D01*
X003058Y008329D01*
X003010Y008314D01*
X002961Y008303D01*
X002912Y008296D01*
X002862Y008293D01*
X002811Y008294D01*
X002762Y008299D01*
X002712Y008308D01*
X002664Y008321D01*
X002617Y008337D01*
X002571Y008358D01*
X002527Y008382D01*
X002485Y008409D01*
X002445Y008439D01*
X002408Y008473D01*
X002374Y008510D01*
X002342Y008549D01*
X002314Y008590D01*
X002289Y008634D01*
X002268Y008679D01*
X002251Y008726D01*
X002237Y008774D01*
X002227Y008823D01*
X002221Y008873D01*
X002219Y008923D01*
D11*
X006035Y004429D02*
X006185Y004429D01*
X006110Y004429D02*
X006110Y004054D01*
X006035Y003979D01*
X005960Y003979D01*
X005885Y004054D01*
X006345Y004129D02*
X006570Y004129D01*
X006645Y004204D01*
X006645Y004354D01*
X006570Y004429D01*
X006345Y004429D01*
X006345Y003979D01*
X006805Y003979D02*
X007106Y003979D01*
X006956Y003979D02*
X006956Y004429D01*
X006805Y004279D01*
X012489Y006214D02*
X012489Y006884D01*
X013690Y006884D01*
X013690Y006214D01*
X012489Y006214D01*
X013910Y004429D02*
X014060Y004429D01*
X013985Y004429D02*
X013985Y004054D01*
X013910Y003979D01*
X013835Y003979D01*
X013760Y004054D01*
X014221Y004129D02*
X014446Y004129D01*
X014521Y004204D01*
X014521Y004354D01*
X014446Y004429D01*
X014221Y004429D01*
X014221Y003979D01*
X014681Y003979D02*
X014981Y004279D01*
X014981Y004354D01*
X014906Y004429D01*
X014756Y004429D01*
X014681Y004354D01*
X014681Y003979D02*
X014981Y003979D01*
X014736Y009384D02*
X016311Y009384D01*
X016311Y013714D01*
X014736Y013714D01*
X014736Y009384D01*
D12*
X012478Y008953D02*
X012478Y011394D01*
X012369Y011503D01*
X009928Y011503D01*
X009820Y011394D01*
X009820Y008953D01*
X009928Y008845D01*
X012369Y008845D01*
X012478Y008953D01*
X011700Y010961D02*
X011702Y010991D01*
X011708Y011021D01*
X011717Y011050D01*
X011730Y011077D01*
X011747Y011102D01*
X011766Y011125D01*
X011789Y011146D01*
X011814Y011163D01*
X011840Y011177D01*
X011869Y011187D01*
X011898Y011194D01*
X011928Y011197D01*
X011959Y011196D01*
X011989Y011191D01*
X012018Y011182D01*
X012045Y011170D01*
X012071Y011155D01*
X012095Y011136D01*
X012116Y011114D01*
X012134Y011090D01*
X012149Y011063D01*
X012160Y011035D01*
X012168Y011006D01*
X012172Y010976D01*
X012172Y010946D01*
X012168Y010916D01*
X012160Y010887D01*
X012149Y010859D01*
X012134Y010832D01*
X012116Y010808D01*
X012095Y010786D01*
X012071Y010767D01*
X012045Y010752D01*
X012018Y010740D01*
X011989Y010731D01*
X011959Y010726D01*
X011928Y010725D01*
X011898Y010728D01*
X011869Y010735D01*
X011840Y010745D01*
X011814Y010759D01*
X011789Y010776D01*
X011766Y010797D01*
X011747Y010820D01*
X011730Y010845D01*
X011717Y010872D01*
X011708Y010901D01*
X011702Y010931D01*
X011700Y010961D01*
X009860Y006350D02*
X016310Y006350D01*
X016310Y004730D01*
X009860Y004730D01*
X009860Y006350D01*
X010415Y006130D02*
X011315Y006130D01*
X011315Y005230D01*
X010415Y005230D01*
X010415Y006130D01*
X009860Y004730D02*
X009860Y000150D01*
X011335Y000150D01*
X011335Y000730D01*
X011835Y000730D02*
X011835Y000150D01*
X012335Y000150D01*
X012335Y000730D01*
X012835Y000730D02*
X012835Y000150D01*
X013335Y000150D01*
X013335Y000730D01*
X013835Y000730D02*
X013835Y000150D01*
X014335Y000150D01*
X014335Y000730D01*
X014835Y000730D02*
X014835Y000150D01*
X016310Y000150D01*
X016310Y004730D01*
X015755Y005230D02*
X015755Y006130D01*
X014855Y006130D01*
X014855Y005230D01*
X015755Y005230D01*
X014835Y000150D02*
X014335Y000150D01*
X013835Y000150D02*
X013335Y000150D01*
X012835Y000150D02*
X012335Y000150D01*
X011835Y000150D02*
X011335Y000150D01*
X008436Y000150D02*
X008436Y004730D01*
X001986Y004730D01*
X001986Y006350D01*
X008436Y006350D01*
X008436Y004730D01*
X007881Y005230D02*
X007881Y006130D01*
X006981Y006130D01*
X006981Y005230D01*
X007881Y005230D01*
X003441Y005230D02*
X002541Y005230D01*
X002541Y006130D01*
X003441Y006130D01*
X003441Y005230D01*
X001986Y004730D02*
X001986Y000150D01*
X003461Y000150D01*
X003461Y000730D01*
X003961Y000730D02*
X003961Y000150D01*
X004461Y000150D01*
X004461Y000730D01*
X004961Y000730D02*
X004961Y000150D01*
X005461Y000150D01*
X005461Y000730D01*
X005961Y000730D02*
X005961Y000150D01*
X006461Y000150D01*
X006461Y000730D01*
X006961Y000730D02*
X006961Y000150D01*
X008436Y000150D01*
X006961Y000150D02*
X006461Y000150D01*
X005961Y000150D02*
X005461Y000150D01*
X004961Y000150D02*
X004461Y000150D01*
X003961Y000150D02*
X003461Y000150D01*
D13*
X003418Y004352D02*
X003879Y004352D01*
X003879Y004659D01*
X003879Y004813D02*
X003879Y005120D01*
X003879Y005273D02*
X003879Y005503D01*
X003802Y005580D01*
X003495Y005580D01*
X003418Y005503D01*
X003418Y005273D01*
X003879Y005273D01*
X003771Y005381D02*
X003771Y005458D01*
X004078Y005765D01*
X004078Y005842D01*
X003771Y005842D01*
X003879Y005887D02*
X003418Y005887D01*
X003572Y005734D01*
X003617Y005765D02*
X003541Y005842D01*
X003387Y005842D01*
X003311Y005765D01*
X003311Y005458D01*
X003387Y005381D01*
X003541Y005381D01*
X003617Y005458D01*
X003418Y005120D02*
X003418Y004813D01*
X003879Y004813D01*
X003649Y004813D02*
X003649Y004966D01*
X003879Y005734D02*
X003879Y006040D01*
X003848Y006194D02*
X004001Y006194D01*
X004078Y006271D01*
X004078Y006347D01*
X004001Y006424D01*
X003771Y006424D01*
X003771Y006271D01*
X003848Y006194D01*
X003771Y006424D02*
X003924Y006578D01*
X004078Y006654D01*
X003617Y006578D02*
X003541Y006654D01*
X003387Y006654D01*
X003311Y006578D01*
X003311Y006271D01*
X003387Y006194D01*
X003541Y006194D01*
X003617Y006271D01*
X002754Y005714D02*
X002754Y005560D01*
X002677Y005484D01*
X002754Y005330D02*
X002754Y005023D01*
X002447Y005330D01*
X002370Y005330D01*
X002293Y005253D01*
X002293Y005100D01*
X002370Y005023D01*
X002370Y004870D02*
X002293Y004793D01*
X002293Y004563D01*
X002754Y004563D01*
X002600Y004563D02*
X002600Y004793D01*
X002524Y004870D01*
X002370Y004870D01*
X002600Y004716D02*
X002754Y004870D01*
X002370Y005484D02*
X002293Y005560D01*
X002293Y005714D01*
X002370Y005790D01*
X002447Y005790D01*
X002524Y005714D01*
X002600Y005790D01*
X002677Y005790D01*
X002754Y005714D01*
X002524Y005714D02*
X002524Y005637D01*
X004481Y007396D02*
X004558Y007319D01*
X004712Y007319D01*
X004788Y007396D01*
X004788Y007779D01*
X004942Y007779D02*
X004942Y007549D01*
X005095Y007626D01*
X005172Y007626D01*
X005249Y007549D01*
X005249Y007396D01*
X005172Y007319D01*
X005018Y007319D01*
X004942Y007396D01*
X004942Y007779D02*
X005249Y007779D01*
X005254Y008194D02*
X004793Y008194D01*
X004793Y008424D01*
X004870Y008501D01*
X005024Y008501D01*
X005100Y008424D01*
X005100Y008194D01*
X005100Y008347D02*
X005254Y008501D01*
X005254Y008654D02*
X005254Y008961D01*
X005254Y008808D02*
X004793Y008808D01*
X004947Y008654D01*
X005024Y009115D02*
X005024Y009345D01*
X005100Y009422D01*
X005177Y009422D01*
X005254Y009345D01*
X005254Y009191D01*
X005177Y009115D01*
X005024Y009115D01*
X004870Y009268D01*
X004793Y009422D01*
X004379Y009345D02*
X004379Y009191D01*
X004302Y009115D01*
X004379Y008961D02*
X004379Y008654D01*
X004379Y008808D02*
X003918Y008808D01*
X004072Y008654D01*
X003995Y008501D02*
X003918Y008424D01*
X003918Y008271D01*
X003995Y008194D01*
X004302Y008194D01*
X004379Y008271D01*
X004379Y008424D01*
X004302Y008501D01*
X003995Y009115D02*
X003918Y009191D01*
X003918Y009345D01*
X003995Y009422D01*
X004072Y009422D01*
X004149Y009345D01*
X004225Y009422D01*
X004302Y009422D01*
X004379Y009345D01*
X004149Y009345D02*
X004149Y009268D01*
X005606Y009345D02*
X005836Y009115D01*
X005836Y009422D01*
X005793Y009506D02*
X005793Y009737D01*
X005870Y009813D01*
X006024Y009813D01*
X006100Y009737D01*
X006100Y009506D01*
X006120Y009586D02*
X006043Y009662D01*
X006043Y009816D01*
X006120Y009893D01*
X006254Y009967D02*
X006254Y010274D01*
X006197Y010276D02*
X006274Y010353D01*
X006427Y010353D01*
X006504Y010276D01*
X006504Y010123D01*
X006427Y010046D01*
X006274Y010046D02*
X006197Y010199D01*
X006197Y010276D01*
X006177Y010427D02*
X006254Y010504D01*
X006254Y010657D01*
X006177Y010734D01*
X006100Y010734D01*
X006024Y010657D01*
X006024Y010581D01*
X006024Y010657D02*
X005947Y010734D01*
X005870Y010734D01*
X005793Y010657D01*
X005793Y010504D01*
X005870Y010427D01*
X006043Y010353D02*
X006043Y010046D01*
X006274Y010046D01*
X006254Y010120D02*
X005793Y010120D01*
X005947Y009967D01*
X006100Y009660D02*
X006254Y009813D01*
X006274Y009816D02*
X006274Y009662D01*
X006197Y009586D01*
X006120Y009586D01*
X006254Y009506D02*
X005793Y009506D01*
X005606Y009345D02*
X006066Y009345D01*
X006043Y009432D02*
X006427Y009432D01*
X006504Y009355D01*
X006504Y009202D01*
X006427Y009125D01*
X006043Y009125D01*
X006066Y008961D02*
X006066Y008654D01*
X006066Y008501D02*
X005913Y008347D01*
X005913Y008424D02*
X005913Y008194D01*
X006066Y008194D02*
X005606Y008194D01*
X005606Y008424D01*
X005683Y008501D01*
X005836Y008501D01*
X005913Y008424D01*
X005759Y008654D02*
X005606Y008808D01*
X006066Y008808D01*
X006427Y009586D02*
X006504Y009662D01*
X006504Y009816D01*
X006427Y009893D01*
X006350Y009893D01*
X006274Y009816D01*
X005967Y009739D02*
X006581Y009739D01*
X007248Y009881D02*
X007248Y010342D01*
X007478Y010342D01*
X007555Y010265D01*
X007555Y010112D01*
X007478Y010035D01*
X007248Y010035D01*
X007402Y010035D02*
X007555Y009881D01*
X007544Y010015D02*
X007544Y009708D01*
X007621Y009631D01*
X007774Y009631D01*
X007851Y009708D01*
X008004Y009631D02*
X008311Y009631D01*
X008274Y009734D02*
X008274Y009504D01*
X008197Y009427D01*
X008120Y009427D01*
X008043Y009504D01*
X008043Y009657D01*
X008120Y009734D01*
X008427Y009734D01*
X008504Y009657D01*
X008504Y009504D01*
X008427Y009427D01*
X008465Y009279D02*
X008465Y009049D01*
X008618Y009126D01*
X008695Y009126D01*
X008772Y009049D01*
X008772Y008896D01*
X008695Y008819D01*
X008541Y008819D01*
X008465Y008896D01*
X008504Y008967D02*
X008504Y009274D01*
X008465Y009279D02*
X008772Y009279D01*
X008504Y009120D02*
X008043Y009120D01*
X008197Y008967D01*
X008158Y008819D02*
X008158Y009279D01*
X008004Y009126D01*
X007851Y009203D02*
X007851Y009049D01*
X007774Y008972D01*
X007544Y008972D01*
X007544Y008819D02*
X007544Y009279D01*
X007774Y009279D01*
X007851Y009203D01*
X007697Y008972D02*
X007851Y008819D01*
X008004Y008819D02*
X008311Y008819D01*
X008427Y008813D02*
X008504Y008737D01*
X008504Y008583D01*
X008427Y008506D01*
X008120Y008506D01*
X008043Y008583D01*
X008043Y008737D01*
X008120Y008813D01*
X008158Y009631D02*
X008158Y010092D01*
X008004Y009938D01*
X007851Y010015D02*
X007774Y010092D01*
X007621Y010092D01*
X007544Y010015D01*
X007708Y009958D02*
X007708Y009881D01*
X007708Y009958D02*
X008015Y010265D01*
X008015Y010342D01*
X007708Y010342D01*
X008465Y010015D02*
X008541Y010092D01*
X008695Y010092D01*
X008772Y010015D01*
X008772Y009938D01*
X008465Y009631D01*
X008772Y009631D01*
X008793Y011063D02*
X009177Y011063D01*
X009254Y011139D01*
X009254Y011293D01*
X009177Y011370D01*
X008793Y011370D01*
X008870Y011523D02*
X008793Y011600D01*
X008793Y011753D01*
X008870Y011830D01*
X009024Y011753D02*
X009024Y011600D01*
X008947Y011523D01*
X008870Y011523D01*
X008717Y011677D02*
X009331Y011677D01*
X009254Y011600D02*
X009254Y011753D01*
X009177Y011830D01*
X009100Y011830D01*
X009024Y011753D01*
X009024Y011984D02*
X009024Y012214D01*
X009100Y012290D01*
X009177Y012290D01*
X009254Y012214D01*
X009254Y012060D01*
X009177Y011984D01*
X009024Y011984D01*
X008870Y012137D01*
X008793Y012290D01*
X008856Y012273D02*
X008856Y012503D01*
X008933Y012580D01*
X009086Y012580D01*
X009163Y012503D01*
X009163Y012273D01*
X009316Y012273D02*
X008856Y012273D01*
X009163Y012427D02*
X009316Y012580D01*
X009240Y012734D02*
X009086Y012734D01*
X009086Y012964D01*
X009163Y013040D01*
X009240Y013040D01*
X009316Y012964D01*
X009316Y012810D01*
X009240Y012734D01*
X009086Y012734D02*
X008933Y012887D01*
X008856Y013040D01*
X009247Y013444D02*
X009554Y013904D01*
X009707Y013828D02*
X009784Y013904D01*
X009938Y013904D01*
X010014Y013828D01*
X010014Y013751D01*
X009707Y013444D01*
X010014Y013444D01*
X009975Y013040D02*
X010052Y013040D01*
X010129Y012964D01*
X010129Y012810D01*
X010052Y012734D01*
X009975Y012734D01*
X009899Y012810D01*
X009899Y012964D01*
X009975Y013040D01*
X009899Y012964D02*
X009822Y013040D01*
X009745Y013040D01*
X009668Y012964D01*
X009668Y012810D01*
X009745Y012734D01*
X009822Y012734D01*
X009899Y012810D01*
X010052Y012580D02*
X010129Y012503D01*
X010129Y012350D01*
X010052Y012273D01*
X009745Y012273D01*
X009668Y012350D01*
X009668Y012503D01*
X009745Y012580D01*
X009554Y013444D02*
X009247Y013904D01*
X008061Y014294D02*
X007943Y014294D01*
X008061Y014412D01*
X007983Y014373D02*
X007943Y014412D01*
X007943Y014806D01*
X007983Y014845D01*
X007943Y014806D02*
X007825Y014806D01*
X007825Y014924D02*
X007943Y014924D01*
X008061Y014806D01*
X008061Y014924D02*
X007943Y014924D01*
X007943Y014412D02*
X007825Y014412D01*
X007825Y014294D02*
X007943Y014294D01*
X007254Y013845D02*
X006793Y013845D01*
X007024Y013615D01*
X007024Y013922D01*
X006515Y013842D02*
X006208Y013842D01*
X006208Y013612D01*
X006362Y013688D01*
X006439Y013688D01*
X006515Y013612D01*
X006515Y013458D01*
X006439Y013381D01*
X006285Y013381D01*
X006208Y013458D01*
X006055Y013381D02*
X005902Y013535D01*
X005978Y013535D02*
X005748Y013535D01*
X005740Y013648D02*
X005816Y013725D01*
X005816Y013878D01*
X005740Y013955D01*
X005748Y013842D02*
X005978Y013842D01*
X006055Y013765D01*
X006055Y013612D01*
X005978Y013535D01*
X005740Y013648D02*
X005433Y013648D01*
X005356Y013725D01*
X005356Y013878D01*
X005433Y013955D01*
X005433Y014109D02*
X005356Y014185D01*
X005356Y014339D01*
X005433Y014415D01*
X005509Y014415D01*
X005816Y014109D01*
X005816Y014415D01*
X005504Y014521D02*
X005427Y014444D01*
X005120Y014444D01*
X005043Y014521D01*
X005043Y014674D01*
X005120Y014751D01*
X005427Y014751D01*
X005504Y014674D01*
X005504Y014521D01*
X005350Y014597D02*
X005504Y014751D01*
X005504Y014904D02*
X005504Y015211D01*
X005433Y015205D02*
X005356Y015128D01*
X005356Y014975D01*
X005433Y014898D01*
X005740Y014898D01*
X005816Y014975D01*
X005816Y015128D01*
X005740Y015205D01*
X005740Y015359D02*
X005816Y015435D01*
X005816Y015589D01*
X005740Y015665D01*
X005663Y015665D01*
X005586Y015589D01*
X005586Y015512D01*
X005586Y015589D02*
X005509Y015665D01*
X005433Y015665D01*
X005356Y015589D01*
X005356Y015435D01*
X005433Y015359D01*
X005504Y015058D02*
X005043Y015058D01*
X005197Y014904D01*
X005748Y013842D02*
X005748Y013381D01*
X005811Y013029D02*
X006041Y013029D01*
X006117Y012953D01*
X006117Y012799D01*
X006041Y012722D01*
X005811Y012722D01*
X005964Y012722D02*
X006117Y012569D01*
X006271Y012646D02*
X006348Y012569D01*
X006501Y012569D01*
X006578Y012646D01*
X006578Y012953D01*
X006501Y013029D01*
X006348Y013029D01*
X006271Y012953D01*
X006271Y012876D01*
X006348Y012799D01*
X006578Y012799D01*
X006538Y012833D02*
X006462Y012756D01*
X006308Y012756D01*
X006231Y012833D01*
X006231Y013140D01*
X006308Y013217D01*
X006462Y013217D01*
X006538Y013140D01*
X006692Y013063D02*
X006845Y013217D01*
X006845Y012756D01*
X006793Y012771D02*
X006870Y012694D01*
X007177Y012694D01*
X007254Y012771D01*
X007254Y012924D01*
X007177Y013001D01*
X007152Y013140D02*
X007152Y012833D01*
X007459Y013140D01*
X007459Y012833D01*
X007382Y012756D01*
X007229Y012756D01*
X007152Y012833D01*
X006999Y012756D02*
X006692Y012756D01*
X006793Y012771D02*
X006793Y012924D01*
X006870Y013001D01*
X006947Y013154D02*
X006793Y013308D01*
X007254Y013308D01*
X007229Y013217D02*
X007382Y013217D01*
X007459Y013140D01*
X007254Y013154D02*
X007254Y013461D01*
X007229Y013217D02*
X007152Y013140D01*
X005811Y013029D02*
X005811Y012569D01*
X005390Y012646D02*
X005390Y012953D01*
X005083Y012646D01*
X005160Y012569D01*
X005314Y012569D01*
X005390Y012646D01*
X005083Y012646D02*
X005083Y012953D01*
X005160Y013029D01*
X005314Y013029D01*
X005390Y012953D01*
X005022Y013271D02*
X004945Y013194D01*
X004791Y013194D01*
X004715Y013271D01*
X004715Y013424D02*
X004868Y013501D01*
X004945Y013501D01*
X005022Y013424D01*
X005022Y013271D01*
X004715Y013424D02*
X004715Y013654D01*
X005022Y013654D01*
X004408Y013654D02*
X004408Y013194D01*
X004561Y013194D02*
X004254Y013194D01*
X004140Y013237D02*
X003833Y013237D01*
X004064Y013467D01*
X004064Y013006D01*
X004163Y013029D02*
X004393Y013029D01*
X004470Y012953D01*
X004470Y012799D01*
X004393Y012722D01*
X004163Y012722D01*
X004163Y012569D02*
X004163Y013029D01*
X004024Y013194D02*
X004101Y013271D01*
X004024Y013194D02*
X003871Y013194D01*
X003794Y013271D01*
X003794Y013578D01*
X003871Y013654D01*
X004024Y013654D01*
X004101Y013578D01*
X004254Y013501D02*
X004408Y013654D01*
X003861Y013654D02*
X003621Y013654D01*
X003861Y013894D01*
X003861Y013954D01*
X003801Y014014D01*
X003681Y014014D01*
X003621Y013954D01*
X003492Y013954D02*
X003432Y014014D01*
X003312Y014014D01*
X003252Y013954D01*
X003252Y013714D01*
X003312Y013654D01*
X003432Y013654D01*
X003492Y013714D01*
X003450Y013467D02*
X003373Y013390D01*
X003373Y013083D01*
X003450Y013006D01*
X003603Y013006D01*
X003680Y013083D01*
X003680Y013390D02*
X003603Y013467D01*
X003450Y013467D01*
X003127Y013654D02*
X003007Y013654D01*
X003067Y013654D02*
X003067Y014014D01*
X003007Y014014D02*
X003127Y014014D01*
X002629Y013865D02*
X002322Y014172D01*
X002245Y014172D01*
X002168Y014095D01*
X002168Y013941D01*
X002245Y013865D01*
X002245Y013711D02*
X002168Y013634D01*
X002168Y013481D01*
X002245Y013404D01*
X002245Y013251D02*
X002168Y013174D01*
X002168Y013021D01*
X002245Y012944D01*
X002552Y012944D01*
X002629Y013021D01*
X002629Y013174D01*
X002552Y013251D01*
X002629Y013404D02*
X002322Y013711D01*
X002245Y013711D01*
X002629Y013711D02*
X002629Y013404D01*
X002629Y013865D02*
X002629Y014172D01*
X001754Y013865D02*
X001677Y013865D01*
X001370Y014172D01*
X001293Y014172D01*
X001293Y013865D01*
X001293Y013558D02*
X001754Y013558D01*
X001754Y013711D02*
X001754Y013404D01*
X001677Y013251D02*
X001754Y013174D01*
X001754Y013021D01*
X001677Y012944D01*
X001370Y012944D01*
X001293Y013021D01*
X001293Y013174D01*
X001370Y013251D01*
X001447Y013404D02*
X001293Y013558D01*
X002606Y011824D02*
X003066Y011824D01*
X003066Y011671D02*
X003066Y011978D01*
X002759Y011671D02*
X002606Y011824D01*
X002606Y011364D02*
X003066Y011364D01*
X003066Y011211D02*
X003066Y011518D01*
X002759Y011211D02*
X002606Y011364D01*
X002683Y011057D02*
X002836Y011057D01*
X002913Y010980D01*
X002913Y010750D01*
X003066Y010750D02*
X002606Y010750D01*
X002606Y010980D01*
X002683Y011057D01*
X002913Y010904D02*
X003066Y011057D01*
X004044Y011006D02*
X004044Y011467D01*
X004274Y011467D01*
X004351Y011390D01*
X004351Y011237D01*
X004274Y011160D01*
X004044Y011160D01*
X004197Y011160D02*
X004351Y011006D01*
X004504Y011006D02*
X004811Y011006D01*
X004658Y011006D02*
X004658Y011467D01*
X004504Y011313D01*
X004418Y011250D02*
X004802Y011250D01*
X004879Y011327D01*
X004879Y011480D01*
X004802Y011557D01*
X004418Y011557D01*
X004495Y011711D02*
X004418Y011787D01*
X004418Y011941D01*
X004495Y012018D01*
X004418Y012171D02*
X004418Y012478D01*
X004495Y012478D01*
X004802Y012171D01*
X004879Y012171D01*
X004802Y012018D02*
X004725Y012018D01*
X004649Y011941D01*
X004649Y011787D01*
X004572Y011711D01*
X004495Y011711D01*
X004342Y011864D02*
X004956Y011864D01*
X004879Y011787D02*
X004879Y011941D01*
X004802Y012018D01*
X004879Y011787D02*
X004802Y011711D01*
X005041Y011467D02*
X004965Y011390D01*
X005041Y011467D02*
X005195Y011467D01*
X005272Y011390D01*
X005272Y011313D01*
X004965Y011006D01*
X005272Y011006D01*
X005544Y011146D02*
X005544Y011453D01*
X005621Y011529D01*
X005774Y011529D01*
X005851Y011453D01*
X005811Y011404D02*
X006041Y011404D01*
X006117Y011328D01*
X006117Y011174D01*
X006041Y011097D01*
X005811Y011097D01*
X005774Y011069D02*
X005851Y011146D01*
X005774Y011069D02*
X005621Y011069D01*
X005544Y011146D01*
X005811Y010944D02*
X005811Y011404D01*
X006004Y011376D02*
X006158Y011529D01*
X006158Y011069D01*
X006271Y011097D02*
X006348Y011174D01*
X006501Y011174D01*
X006578Y011097D01*
X006578Y011021D01*
X006501Y010944D01*
X006348Y010944D01*
X006271Y011021D01*
X006271Y011097D01*
X006311Y011069D02*
X006004Y011069D01*
X005964Y011097D02*
X006117Y010944D01*
X006348Y011174D02*
X006271Y011251D01*
X006271Y011328D01*
X006348Y011404D01*
X006501Y011404D01*
X006578Y011328D01*
X006578Y011251D01*
X006501Y011174D01*
X006465Y011146D02*
X006541Y011069D01*
X006695Y011069D01*
X006772Y011146D01*
X006772Y011222D01*
X006695Y011299D01*
X006465Y011299D01*
X006465Y011146D01*
X006465Y011299D02*
X006618Y011453D01*
X006772Y011529D01*
X004930Y012569D02*
X004623Y012569D01*
X004470Y012569D02*
X004316Y012722D01*
X004623Y012876D02*
X004777Y013029D01*
X004777Y012569D01*
X009177Y011523D02*
X009254Y011600D01*
X011168Y010887D02*
X011629Y010887D01*
X011629Y010734D02*
X011629Y011040D01*
X011322Y010734D02*
X011168Y010887D01*
X011168Y010580D02*
X011552Y010580D01*
X011629Y010503D01*
X011629Y010350D01*
X011552Y010273D01*
X011168Y010273D01*
X012793Y010194D02*
X012793Y010424D01*
X012870Y010501D01*
X013024Y010501D01*
X013100Y010424D01*
X013100Y010194D01*
X013100Y010347D02*
X013254Y010501D01*
X013254Y010654D02*
X012947Y010961D01*
X012870Y010961D01*
X012793Y010884D01*
X012793Y010731D01*
X012870Y010654D01*
X013254Y010654D02*
X013254Y010961D01*
X013254Y010194D02*
X012793Y010194D01*
X013183Y012131D02*
X013106Y012208D01*
X013106Y012515D01*
X013183Y012592D01*
X013337Y012592D01*
X013413Y012515D01*
X013567Y012515D02*
X013643Y012592D01*
X013797Y012592D01*
X013874Y012515D01*
X013874Y012438D01*
X013567Y012131D01*
X013874Y012131D01*
X014027Y012208D02*
X014334Y012515D01*
X014334Y012208D01*
X014257Y012131D01*
X014104Y012131D01*
X014027Y012208D01*
X014027Y012515D01*
X014104Y012592D01*
X014257Y012592D01*
X014334Y012515D01*
X013897Y013194D02*
X013590Y013194D01*
X013743Y013194D02*
X013743Y013654D01*
X013590Y013501D01*
X013436Y013501D02*
X013436Y013578D01*
X013359Y013654D01*
X013206Y013654D01*
X013129Y013578D01*
X012976Y013578D02*
X012899Y013654D01*
X012746Y013654D01*
X012669Y013578D01*
X012669Y013271D01*
X012746Y013194D01*
X012899Y013194D01*
X012976Y013271D01*
X013129Y013194D02*
X013436Y013501D01*
X013436Y013194D02*
X013129Y013194D01*
X012651Y013103D02*
X012344Y013103D01*
X012498Y013103D02*
X012498Y013564D01*
X012344Y013410D01*
X012191Y013487D02*
X012114Y013564D01*
X011961Y013564D01*
X011884Y013487D01*
X011884Y013410D01*
X011961Y013334D01*
X012114Y013334D01*
X012191Y013257D01*
X012191Y013180D01*
X012114Y013103D01*
X011961Y013103D01*
X011884Y013180D01*
X011730Y013180D02*
X011730Y013564D01*
X011423Y013564D02*
X011423Y013180D01*
X011500Y013103D01*
X011654Y013103D01*
X011730Y013180D01*
X011436Y013319D02*
X011129Y013319D01*
X011283Y013319D02*
X011283Y013779D01*
X011129Y013626D01*
X010976Y013703D02*
X010899Y013779D01*
X010746Y013779D01*
X010669Y013703D01*
X010669Y013396D01*
X010746Y013319D01*
X010899Y013319D01*
X010976Y013396D01*
X012037Y013640D02*
X012037Y013027D01*
X013183Y012131D02*
X013337Y012131D01*
X013413Y012208D01*
X013066Y014711D02*
X012606Y014711D01*
X012606Y014941D01*
X012683Y015018D01*
X012836Y015018D01*
X012913Y014941D01*
X012913Y014711D01*
X012913Y014864D02*
X013066Y015018D01*
X012990Y015171D02*
X013066Y015248D01*
X013066Y015401D01*
X012990Y015478D01*
X012913Y015478D01*
X012836Y015401D01*
X012836Y015324D01*
X012836Y015401D02*
X012759Y015478D01*
X012683Y015478D01*
X012606Y015401D01*
X012606Y015248D01*
X012683Y015171D01*
X013794Y015944D02*
X014101Y016404D01*
X014254Y016251D02*
X014408Y016404D01*
X014408Y015944D01*
X014561Y015944D02*
X014254Y015944D01*
X014101Y015944D02*
X013794Y016404D01*
X015860Y015554D02*
X015979Y015554D01*
X015860Y015436D01*
X015939Y015475D02*
X015979Y015436D01*
X015979Y015042D01*
X015939Y015003D01*
X015979Y015042D02*
X016097Y015042D01*
X016097Y014924D02*
X015979Y014924D01*
X015860Y015042D01*
X015860Y014924D02*
X015979Y014924D01*
X015979Y015436D02*
X016097Y015436D01*
X016097Y015554D02*
X015979Y015554D01*
X011254Y015592D02*
X011254Y015899D01*
X011254Y016052D02*
X011254Y016359D01*
X011254Y016206D02*
X010793Y016206D01*
X010947Y016052D01*
X010793Y015745D02*
X011254Y015745D01*
X011177Y015438D02*
X011254Y015362D01*
X011254Y015208D01*
X011177Y015131D01*
X010870Y015131D01*
X010793Y015208D01*
X010793Y015362D01*
X010870Y015438D01*
X010947Y015592D02*
X010793Y015745D01*
X006999Y007654D02*
X006692Y007654D01*
X006692Y007424D01*
X006845Y007501D01*
X006922Y007501D01*
X006999Y007424D01*
X006999Y007271D01*
X006922Y007194D01*
X006768Y007194D01*
X006692Y007271D01*
X006538Y007271D02*
X006462Y007194D01*
X006308Y007194D01*
X006231Y007271D01*
X006231Y007578D01*
X006308Y007654D01*
X006462Y007654D01*
X006538Y007578D01*
X006462Y006842D02*
X006231Y006842D01*
X006231Y006381D01*
X006231Y006535D02*
X006462Y006535D01*
X006538Y006612D01*
X006538Y006765D01*
X006462Y006842D01*
X006385Y006535D02*
X006538Y006381D01*
X006692Y006612D02*
X006999Y006612D01*
X006922Y006842D02*
X006922Y006381D01*
X006692Y006612D02*
X006922Y006842D01*
X008043Y005964D02*
X008043Y005810D01*
X008120Y005734D01*
X008120Y005580D02*
X008043Y005503D01*
X008043Y005273D01*
X008504Y005273D01*
X008504Y005503D01*
X008427Y005580D01*
X008120Y005580D01*
X008043Y005964D02*
X008120Y006040D01*
X008197Y006040D01*
X008504Y005734D01*
X008504Y006040D01*
X008745Y005790D02*
X008668Y005714D01*
X008668Y005560D01*
X008745Y005484D01*
X008822Y005484D01*
X008899Y005560D01*
X008899Y005790D01*
X009052Y005790D02*
X008745Y005790D01*
X009052Y005790D02*
X009129Y005714D01*
X009129Y005560D01*
X009052Y005484D01*
X009129Y005330D02*
X009129Y005023D01*
X009129Y004870D02*
X008975Y004716D01*
X008975Y004793D02*
X008975Y004563D01*
X009129Y004563D02*
X008668Y004563D01*
X008668Y004793D01*
X008745Y004870D01*
X008899Y004870D01*
X008975Y004793D01*
X008822Y005023D02*
X008668Y005177D01*
X009129Y005177D01*
X008504Y005120D02*
X008504Y004813D01*
X008043Y004813D01*
X008043Y005120D01*
X008274Y004966D02*
X008274Y004813D01*
X008504Y004659D02*
X008504Y004352D01*
X008043Y004352D01*
X010168Y004563D02*
X010168Y004793D01*
X010245Y004870D01*
X010399Y004870D01*
X010475Y004793D01*
X010475Y004563D01*
X010475Y004716D02*
X010629Y004870D01*
X010629Y005023D02*
X010322Y005330D01*
X010245Y005330D01*
X010168Y005253D01*
X010168Y005100D01*
X010245Y005023D01*
X010629Y005023D02*
X010629Y005330D01*
X010629Y005484D02*
X010322Y005790D01*
X010245Y005790D01*
X010168Y005714D01*
X010168Y005560D01*
X010245Y005484D01*
X010629Y005484D02*
X010629Y005790D01*
X011293Y005810D02*
X011293Y005964D01*
X011370Y006040D01*
X011447Y006040D01*
X011524Y005964D01*
X011600Y006040D01*
X011677Y006040D01*
X011754Y005964D01*
X011754Y005810D01*
X011677Y005734D01*
X011677Y005580D02*
X011370Y005580D01*
X011293Y005503D01*
X011293Y005273D01*
X011754Y005273D01*
X011754Y005503D01*
X011677Y005580D01*
X011370Y005734D02*
X011293Y005810D01*
X011524Y005887D02*
X011524Y005964D01*
X012168Y006003D02*
X012168Y005850D01*
X012245Y005773D01*
X012552Y005773D01*
X012629Y005850D01*
X012629Y006003D01*
X012552Y006080D01*
X012552Y006234D02*
X012629Y006310D01*
X012629Y006464D01*
X012552Y006540D01*
X012245Y006540D01*
X012168Y006464D01*
X012168Y006310D01*
X012245Y006234D01*
X012322Y006234D01*
X012399Y006310D01*
X012399Y006540D01*
X012245Y006080D02*
X012168Y006003D01*
X011754Y005120D02*
X011754Y004813D01*
X011293Y004813D01*
X011293Y005120D01*
X011524Y004966D02*
X011524Y004813D01*
X011754Y004659D02*
X011754Y004352D01*
X011293Y004352D01*
X010629Y004563D02*
X010168Y004563D01*
X011552Y007069D02*
X011705Y007069D01*
X011782Y007146D01*
X011936Y007069D02*
X012242Y007069D01*
X012089Y007069D02*
X012089Y007529D01*
X011936Y007376D01*
X011782Y007453D02*
X011705Y007529D01*
X011552Y007529D01*
X011475Y007453D01*
X011475Y007146D01*
X011552Y007069D01*
X012396Y007146D02*
X012396Y007222D01*
X012473Y007299D01*
X012626Y007299D01*
X012703Y007222D01*
X012703Y007146D01*
X012626Y007069D01*
X012473Y007069D01*
X012396Y007146D01*
X012473Y007299D02*
X012396Y007376D01*
X012396Y007453D01*
X012473Y007529D01*
X012626Y007529D01*
X012703Y007453D01*
X012703Y007376D01*
X012626Y007299D01*
X013543Y006808D02*
X014004Y006808D01*
X014004Y006961D02*
X014004Y006654D01*
X014004Y006501D02*
X013850Y006347D01*
X013850Y006424D02*
X013850Y006194D01*
X014004Y006194D02*
X013543Y006194D01*
X013543Y006424D01*
X013620Y006501D01*
X013774Y006501D01*
X013850Y006424D01*
X013697Y006654D02*
X013543Y006808D01*
X015918Y005964D02*
X016149Y005734D01*
X016149Y006040D01*
X016379Y005964D02*
X015918Y005964D01*
X015995Y005580D02*
X015918Y005503D01*
X015918Y005273D01*
X016379Y005273D01*
X016379Y005503D01*
X016302Y005580D01*
X015995Y005580D01*
X015918Y005120D02*
X015918Y004813D01*
X016379Y004813D01*
X016379Y005120D01*
X016543Y005177D02*
X017004Y005177D01*
X017004Y005330D02*
X017004Y005023D01*
X017004Y004870D02*
X016850Y004716D01*
X016850Y004793D02*
X016850Y004563D01*
X017004Y004563D02*
X016543Y004563D01*
X016543Y004793D01*
X016620Y004870D01*
X016774Y004870D01*
X016850Y004793D01*
X016697Y005023D02*
X016543Y005177D01*
X016620Y005484D02*
X016697Y005484D01*
X016774Y005560D01*
X016774Y005714D01*
X016850Y005790D01*
X016927Y005790D01*
X017004Y005714D01*
X017004Y005560D01*
X016927Y005484D01*
X016850Y005484D01*
X016774Y005560D01*
X016774Y005714D02*
X016697Y005790D01*
X016620Y005790D01*
X016543Y005714D01*
X016543Y005560D01*
X016620Y005484D01*
X016149Y004966D02*
X016149Y004813D01*
X016379Y004659D02*
X016379Y004352D01*
X015918Y004352D01*
X004481Y007396D02*
X004481Y007779D01*
D14*
X002899Y005635D03*
X007524Y005635D03*
X010774Y005635D03*
X015399Y005635D03*
D15*
X015086Y005424D02*
X014836Y005674D01*
X014336Y005674D01*
X014086Y005424D01*
X013836Y005674D01*
X013336Y005674D01*
X013086Y005424D01*
X013086Y004924D01*
X013336Y004674D01*
X013836Y004674D01*
X014086Y004924D01*
X014086Y005424D01*
X014086Y004924D02*
X014336Y004674D01*
X014836Y004674D01*
X015086Y004924D01*
X015086Y005424D01*
X013086Y005424D02*
X012836Y005674D01*
X012336Y005674D01*
X012086Y005424D01*
X011836Y005674D01*
X011336Y005674D01*
X011086Y005424D01*
X011086Y004924D01*
X011336Y004674D01*
X011836Y004674D01*
X012086Y004924D01*
X012086Y005424D01*
X012086Y004924D02*
X012336Y004674D01*
X012836Y004674D01*
X013086Y004924D01*
X007211Y004924D02*
X006961Y004674D01*
X006461Y004674D01*
X006211Y004924D01*
X005961Y004674D01*
X005461Y004674D01*
X005211Y004924D01*
X005211Y005424D01*
X005461Y005674D01*
X005961Y005674D01*
X006211Y005424D01*
X006461Y005674D01*
X006961Y005674D01*
X007211Y005424D01*
X007211Y004924D01*
X006211Y004924D02*
X006211Y005424D01*
X005771Y006230D02*
X005734Y006230D01*
X005771Y006230D02*
X005771Y006868D01*
X005734Y006868D01*
X005417Y006868D02*
X005006Y006868D01*
X004689Y006868D02*
X004652Y006868D01*
X004652Y006230D01*
X004689Y006230D01*
X005006Y006230D02*
X005043Y006230D01*
X005380Y006230D02*
X005417Y006230D01*
X004961Y005674D02*
X005211Y005424D01*
X004961Y005674D02*
X004461Y005674D01*
X004211Y005424D01*
X003961Y005674D01*
X003461Y005674D01*
X003211Y005424D01*
X003211Y004924D01*
X003461Y004674D01*
X003961Y004674D01*
X004211Y004924D01*
X004211Y005424D01*
X004211Y004924D02*
X004461Y004674D01*
X004961Y004674D01*
X005211Y004924D01*
X004955Y009177D02*
X004955Y009214D01*
X004955Y009177D02*
X005593Y009177D01*
X005593Y009214D01*
X005593Y009531D02*
X005593Y009942D01*
X005593Y010259D02*
X005593Y010296D01*
X004955Y010296D01*
X004955Y010259D01*
X004955Y009942D02*
X004955Y009905D01*
X004955Y009568D02*
X004955Y009531D01*
X003968Y011302D02*
X003330Y011302D01*
X003330Y011339D01*
X003330Y011656D02*
X003330Y011693D01*
X003330Y012030D02*
X003330Y012067D01*
X003330Y012384D02*
X003330Y012421D01*
X003968Y012421D01*
X003968Y012384D01*
X003968Y012067D02*
X003968Y011656D01*
X003968Y011339D02*
X003968Y011302D01*
X004048Y014184D02*
X002250Y014184D01*
X002250Y016164D01*
X004048Y016164D01*
X004048Y014184D01*
X003449Y014534D02*
X003451Y014560D01*
X003457Y014586D01*
X003466Y014610D01*
X003479Y014633D01*
X003495Y014654D01*
X003514Y014672D01*
X003535Y014688D01*
X003559Y014700D01*
X003583Y014708D01*
X003609Y014713D01*
X003636Y014714D01*
X003662Y014711D01*
X003687Y014704D01*
X003711Y014694D01*
X003734Y014680D01*
X003754Y014664D01*
X003771Y014644D01*
X003786Y014622D01*
X003797Y014598D01*
X003805Y014573D01*
X003809Y014547D01*
X003809Y014521D01*
X003805Y014495D01*
X003797Y014470D01*
X003786Y014446D01*
X003771Y014424D01*
X003754Y014404D01*
X003734Y014388D01*
X003711Y014374D01*
X003687Y014364D01*
X003662Y014357D01*
X003636Y014354D01*
X003609Y014355D01*
X003583Y014360D01*
X003559Y014368D01*
X003535Y014380D01*
X003514Y014396D01*
X003495Y014414D01*
X003479Y014435D01*
X003466Y014458D01*
X003457Y014482D01*
X003451Y014508D01*
X003449Y014534D01*
X007705Y012234D02*
X007705Y012197D01*
X007705Y012234D02*
X008343Y012234D01*
X008343Y012197D01*
X008343Y011879D02*
X008343Y011468D01*
X008343Y011151D02*
X008343Y011114D01*
X007705Y011114D01*
X007705Y011151D01*
X007705Y011468D02*
X007705Y011505D01*
X007705Y011842D02*
X007705Y011879D01*
D16*
X007238Y013900D02*
X011057Y013900D01*
X011057Y015948D01*
X007238Y015948D01*
X007238Y013900D01*
X007589Y014294D02*
X007746Y014294D01*
X007589Y014294D02*
X007589Y014451D01*
X007746Y014451D01*
X007746Y014648D02*
X007589Y014648D01*
X007589Y015199D01*
X007746Y015199D01*
X007746Y015396D02*
X007589Y015396D01*
X007589Y015554D01*
X007746Y015554D01*
X007786Y015869D02*
X010510Y015869D01*
X010510Y013979D01*
X007786Y013979D01*
X007786Y015869D01*
X008101Y015711D02*
X010195Y015711D01*
X010195Y014136D01*
X008101Y014136D01*
X008101Y015711D01*
X010549Y015554D02*
X010707Y015554D01*
X010707Y015396D01*
X010549Y015396D01*
X010549Y015199D02*
X010707Y015199D01*
X010707Y014648D01*
X010549Y014648D01*
X010549Y014451D02*
X010707Y014451D01*
X010707Y014294D01*
X010549Y014294D01*
X012864Y013900D02*
X016683Y013900D01*
X016683Y015948D01*
X012864Y015948D01*
X012864Y013900D01*
X013215Y014294D02*
X013372Y014294D01*
X013215Y014294D02*
X013215Y014451D01*
X013372Y014451D01*
X013372Y014648D02*
X013215Y014648D01*
X013215Y015199D01*
X013372Y015199D01*
X013372Y015396D02*
X013215Y015396D01*
X013215Y015554D01*
X013372Y015554D01*
X013727Y015711D02*
X015821Y015711D01*
X015821Y014136D01*
X013727Y014136D01*
X013727Y015711D01*
X013412Y015869D02*
X013412Y013979D01*
X016136Y013979D01*
X016136Y015869D01*
X013412Y015869D01*
X016175Y015554D02*
X016333Y015554D01*
X016333Y015396D01*
X016175Y015396D01*
X016175Y015199D02*
X016333Y015199D01*
X016333Y014648D01*
X016175Y014648D01*
X016175Y014451D02*
X016333Y014451D01*
X016333Y014294D01*
X016175Y014294D01*
D17*
X003958Y014274D02*
X002340Y014274D01*
X002340Y016074D01*
X003958Y016074D01*
X003958Y014274D01*
M02*
