%
M48
M72
T01C0.0118
T02C0.0320
T03C0.0350
T04C0.0400
T05C0.0620
T06C0.0630
T07C0.1260
T08C0.1280
%
T01
X12250Y8938
X12063Y5750
X4063Y4813
X3063Y4875
X12375Y12375
X11375Y7438
X10188Y5500
X6813Y10875
X6000Y12125
X9625Y5750
X6375Y5750
X3125Y6625
X1750Y5750
X14250Y5750
X11750Y7438
X8040Y7603
X9563Y11750
X14938Y9375
X11438Y11063
X11563Y13063
X12125Y8438
X12938Y11000
X8875Y7250
X875Y5625
X9625Y7250
X15125Y5625
X12938Y11500
X9938Y10625
X10063Y6313
X10250Y6625
X3500Y11438
X5938Y12938
X1375Y14000
X2625Y15000
X1375Y14875
X11189Y10064
X10938Y9813
X1375Y15250
X4500Y13313
X11188Y9563
X3500Y10688
X4438Y12063
X3875Y12063
X750Y11438
X3875Y9688
X4813Y8938
X10938Y9313
X3938Y7563
X2000Y10375
X4500Y13938
X875Y13188
T02
X14375Y14625
X13875Y13625
X13375Y14625
X12875Y13625
X7249Y13625
X7749Y14625
X8249Y13625
X8749Y14625
T03
X13336Y2431
X12936Y3131
X12536Y2431
X12136Y3131
X11736Y2431
X11336Y3131
X10936Y2431
X10536Y3131
X5462Y2431
X5062Y3131
X4662Y2431
X4262Y3131
X3862Y2431
X3462Y3131
X3062Y2431
X2662Y3131
T04
X5562Y4375
X4562Y4375
X3562Y4375
X2562Y4375
X13438Y4375
X12438Y4375
X11438Y4375
X10438Y4375
T05
X15126Y2781
X8746Y2781
X7252Y2781
X872Y2781
T06
X14926Y13916
X6698Y14334
T07
X1700Y8124
X14298Y8124
T08
X9436Y1431
X14436Y1431
X1562Y1431
X6562Y1431
M30
